<?xml version="1.0" encoding="iso-8859-1"?>
<!-- Generator: Adobe Illustrator 19.0.0, SVG Export Plug-In . SVG Version: 6.00 Build 0)  -->
<svg xmlns="http://www.w3.org/2000/svg" xmlns:xlink="http://www.w3.org/1999/xlink" version="1.1" id="Capa_1" x="0px" y="0px" viewBox="0 0 512 512" style="enable-background:new 0 0 512 512;" xml:space="preserve" width="512" height="512">
<g>
	<polygon style="fill:#E1D3CE;" points="256,0 235.984,256.858 256,512 364.4,512 392.222,444.145 460.078,416.322 460.078,0  "/>
	<rect x="51.922" style="fill:#FFF5F5;" width="204.078" height="512"/>
	<polygon style="fill:#9B9696;" points="364.4,512 364.4,416.322 460.078,416.322  "/>
	<polygon style="fill:#E7C994;" points="336.161,193.073 336.161,63.785 271,63.785 235.984,83.801 256,193.073  "/>
	<polygon style="fill:#F3E5CB;" points="175.839,193.073 256,193.073 256,73.793 241,63.785 175.839,63.785  "/>
	<rect x="241" y="63.785" style="fill:#D59F40;" width="30" height="47.839"/>
	<polygon style="fill:#607882;" points="412.238,241.858 256,241.858 245.992,256.858 256,271.858 412.238,271.858  "/>
	<polygon style="fill:#607882;" points="412.238,305.644 256,305.644 245.992,320.644 256,335.644 412.238,335.644  "/>
	<rect x="99.761" y="241.858" style="fill:#87A0AF;" width="156.239" height="30"/>
	<rect x="99.761" y="305.644" style="fill:#87A0AF;" width="156.239" height="30"/>
	<polygon style="fill:#607882;" points="316.561,399.429 316.561,369.429 256,369.429 245.992,384.429 256,399.429  "/>
	<polygon style="fill:#607882;" points="316.561,463.214 316.561,433.214 256,433.214 245.992,448.214 256,463.214  "/>
	<rect x="99.761" y="369.429" style="fill:#87A0AF;" width="156.239" height="30"/>
	<rect x="99.761" y="433.214" style="fill:#87A0AF;" width="156.239" height="30"/>
</g>















</svg>
